<?xml version="1.0" encoding="utf-8"?>
<!-- Generator: Adobe Illustrator 16.0.0, SVG Export Plug-In . SVG Version: 6.00 Build 0)  -->
<!DOCTYPE svg PUBLIC "-//W3C//DTD SVG 1.1//EN" "http://www.w3.org/Graphics/SVG/1.1/DTD/svg11.dtd">
<svg version="1.1" id="Layer_1" xmlns="http://www.w3.org/2000/svg" xmlns:xlink="http://www.w3.org/1999/xlink" x="0px" y="0px"
	 width="60px" height="60px" viewBox="0 0 60 60" enable-background="new 0 0 60 60" xml:space="preserve">
<g>
	
		<rect x="36.864" y="5.287" transform="matrix(0.7072 0.707 -0.707 0.7072 19.9206 -23.5268)" fill="#4D4D4D" width="3.001" height="14"/>
	
		<rect x="46.213" y="25.636" transform="matrix(0.7071 -0.7071 0.7071 0.7071 -3.6017 45.5769)" fill="#4D4D4D" width="14" height="3"/>
	<path fill="#4D4D4D" d="M32.828,35.5l9.425-9.425l4.243,4.243l9.898-9.899L45.082,9.105l-9.9,9.899l4.243,4.243L30,32.672
		l-9.424-9.424l4.243-4.243l-9.899-9.899L3.605,20.419l9.899,9.899l4.243-4.243l9.424,9.424L11.848,50.824
		c-0.781,0.781-0.781,2.047,0,2.828c0.39,0.391,0.902,0.586,1.414,0.586s1.024-0.195,1.414-0.586L30,38.328l15.325,15.325
		c0.391,0.391,0.902,0.586,1.414,0.586s1.023-0.195,1.414-0.586c0.781-0.781,0.781-2.047,0-2.828L32.828,35.5z"/>
	
		<rect x="5.287" y="20.136" transform="matrix(0.7071 -0.7071 0.7071 0.7071 -17.2004 12.7471)" fill="#4D4D4D" width="3" height="14"/>
	
		<rect x="14.636" y="10.787" transform="matrix(0.7071 0.7071 -0.7071 0.7071 15.0253 -11.7001)" fill="#4D4D4D" width="14" height="3"/>
</g>
</svg>
