<?xml version="1.0" encoding="utf-8"?>
<!-- Generator: Adobe Illustrator 16.0.0, SVG Export Plug-In . SVG Version: 6.00 Build 0)  -->
<!DOCTYPE svg PUBLIC "-//W3C//DTD SVG 1.1//EN" "http://www.w3.org/Graphics/SVG/1.1/DTD/svg11.dtd">
<svg version="1.1" id="Layer_1" xmlns="http://www.w3.org/2000/svg" xmlns:xlink="http://www.w3.org/1999/xlink" x="0px" y="0px"
	 width="60px" height="60px" viewBox="0 0 60 60" enable-background="new 0 0 60 60" xml:space="preserve">
<g>
	<path fill="#FF00AA" d="M37,30.25c0,3.729-3.021,6.75-6.75,6.75h-0.5C26.022,37,23,33.979,23,30.25v-0.5
		c0-3.729,3.022-6.75,6.75-6.75h0.5c3.729,0,6.75,3.021,6.75,6.75V30.25z"/>
</g>
<g>
	<path fill="#FF00AA" d="M30,13c-1.104,0-2-0.896-2-2V2c0-1.104,0.896-2,2-2s2,0.896,2,2v9C32,12.104,31.104,13,30,13z"/>
</g>
<g>
	<path fill="#FF00AA" d="M30,60c-1.104,0-2-0.896-2-2v-8c0-1.104,0.896-2,2-2s2,0.896,2,2v8C32,59.104,31.104,60,30,60z"/>
</g>
<g>
	<path fill="#FF00AA" d="M30,13c-1.104,0-2-0.896-2-2V2c0-1.104,0.896-2,2-2s2,0.896,2,2v9C32,12.104,31.104,13,30,13z"/>
</g>
<g>
	<path fill="#FF00AA" d="M30,60c-1.104,0-2-0.896-2-2v-8c0-1.104,0.896-2,2-2s2,0.896,2,2v8C32,59.104,31.104,60,30,60z"/>
</g>
<g>
	<path fill="#FF00AA" d="M58,32h-9c-1.104,0-2-0.896-2-2s0.896-2,2-2h9c1.104,0,2,0.896,2,2S59.104,32,58,32z"/>
</g>
<g>
	<path fill="#FF00AA" d="M10,32H2c-1.104,0-2-0.896-2-2s0.896-2,2-2h8c1.104,0,2,0.896,2,2S11.104,32,10,32z"/>
</g>
<g>
	<path fill="#FF00AA" d="M58,32h-9c-1.104,0-2-0.896-2-2s0.896-2,2-2h9c1.104,0,2,0.896,2,2S59.104,32,58,32z"/>
</g>
<g>
	<path fill="#FF00AA" d="M10,32H2c-1.104,0-2-0.896-2-2s0.896-2,2-2h8c1.104,0,2,0.896,2,2S11.104,32,10,32z"/>
</g>
<g>
	<path fill="#FF00AA" d="M43.357,18.643c-0.512,0-1.023-0.195-1.414-0.586c-0.781-0.781-0.781-2.047,0-2.828l6.431-6.431
		c0.781-0.781,2.047-0.781,2.828,0c0.781,0.781,0.781,2.047,0,2.828l-6.431,6.431C44.381,18.447,43.869,18.643,43.357,18.643z"/>
</g>
<g>
	<path fill="#FF00AA" d="M10.212,51.788c-0.512,0-1.024-0.195-1.414-0.586c-0.781-0.781-0.781-2.047,0-2.828l5.937-5.937
		c0.78-0.781,2.048-0.781,2.828,0c0.781,0.781,0.781,2.047,0,2.828l-5.937,5.937C11.236,51.593,10.724,51.788,10.212,51.788z"/>
</g>
<g>
	<path fill="#FF00AA" d="M43.357,18.643c-0.512,0-1.023-0.195-1.414-0.586c-0.781-0.781-0.781-2.047,0-2.828l6.431-6.431
		c0.781-0.781,2.047-0.781,2.828,0c0.781,0.781,0.781,2.047,0,2.828l-6.431,6.431C44.381,18.447,43.869,18.643,43.357,18.643z"/>
</g>
<g>
	<path fill="#FF00AA" d="M10.212,51.788c-0.512,0-1.024-0.195-1.414-0.586c-0.781-0.781-0.781-2.047,0-2.828l5.937-5.937
		c0.78-0.781,2.048-0.781,2.828,0c0.781,0.781,0.781,2.047,0,2.828l-5.937,5.937C11.236,51.593,10.724,51.788,10.212,51.788z"/>
</g>
<g>
	<path fill="#FF00AA" d="M49.788,51.788c-0.512,0-1.023-0.195-1.414-0.586l-6.431-6.431c-0.781-0.781-0.781-2.047,0-2.828
		s2.047-0.781,2.828,0l6.431,6.431c0.781,0.781,0.781,2.047,0,2.828C50.812,51.593,50.3,51.788,49.788,51.788z"/>
</g>
<g>
	<path fill="#FF00AA" d="M16.148,18.148c-0.512,0-1.024-0.195-1.414-0.586l-5.937-5.937c-0.781-0.781-0.781-2.047,0-2.828
		c0.78-0.781,2.048-0.781,2.828,0l5.937,5.937c0.781,0.781,0.781,2.047,0,2.828C17.172,17.953,16.66,18.148,16.148,18.148z"/>
</g>
<g>
	<path fill="#FF00AA" d="M49.788,51.788c-0.512,0-1.023-0.195-1.414-0.586l-6.431-6.431c-0.781-0.781-0.781-2.047,0-2.828
		s2.047-0.781,2.828,0l6.431,6.431c0.781,0.781,0.781,2.047,0,2.828C50.812,51.593,50.3,51.788,49.788,51.788z"/>
</g>
<g>
	<path fill="#FF00AA" d="M16.148,18.148c-0.512,0-1.024-0.195-1.414-0.586l-5.937-5.937c-0.781-0.781-0.781-2.047,0-2.828
		c0.78-0.781,2.048-0.781,2.828,0l5.937,5.937c0.781,0.781,0.781,2.047,0,2.828C17.172,17.953,16.66,18.148,16.148,18.148z"/>
</g>
</svg>
